<?xml version="1.0" ?><!DOCTYPE svg  PUBLIC '-//W3C//DTD SVG 1.1//EN'  'http://www.w3.org/Graphics/SVG/1.1/DTD/svg11.dtd'><svg height="512px" style="enable-background:new 0 0 512 512;" version="1.1" viewBox="0 0 512 512" width="512px" xml:space="preserve" xmlns="http://www.w3.org/2000/svg" xmlns:xlink="http://www.w3.org/1999/xlink"><g id="Layer_8"><g><g><circle cx="256" cy="256" r="256" style="fill:#4CC5AD;"/><g><g><path d="M242.824,112.28c-6.331,0-11.62,4.445-12.926,10.386c-1.304-5.94-6.592-10.386-12.924-10.386       c-7.31,0-13.235,5.927-13.235,13.237v13.065h0.008c0.078,1.171,1.067,8.452,13.228,19.347       c13.304,11.921,12.895,19.016,12.895,19.016h0.001c-18.416,9.72-41.618,24.184-52.262,39.858       c-20.947,30.851-25.552,140.566-26.076,155.17c-0.033,0.534-0.055,1.072-0.055,1.615c0,14.432,11.699,26.131,26.131,26.131H256       V124.275C255.373,117.548,249.716,112.28,242.824,112.28z" style="fill:#CCBEAC;"/></g><g><path d="M360.469,371.974c-0.524-14.604-5.129-124.319-26.076-155.17       c-10.644-15.675-33.847-30.139-52.263-39.858h0.031c0,0-0.408-7.095,12.895-19.016c13.303-11.92,13.236-19.518,13.236-19.518       h-0.029v-9.914c0.22-0.958,0.341-1.955,0.341-2.98c0-7.311-5.926-13.237-13.236-13.237c-6.53,0-11.953,4.731-13.036,10.951       c-1.082-6.22-6.505-10.951-13.034-10.951c-7.311,0-13.236,5.927-13.236,13.237c0-0.419-0.022-0.833-0.061-1.242V399.72h78.393       c14.432,0,26.131-11.699,26.131-26.131C360.523,373.046,360.501,372.508,360.469,371.974z" style="fill:#CCBEAC;"/></g><g><path d="M282.13,181.845h-52.261c-2.706,0-4.899-2.193-4.899-4.899s2.193-4.899,4.899-4.899h52.261       c2.705,0,4.899,2.193,4.899,4.899S284.835,181.845,282.13,181.845z" style="fill:#BF351F;"/></g><g><circle cx="256" cy="300.096" r="52.262" style="fill:#FFEED2;"/></g><g><path d="M262.228,332.351h-25.519v-12.248h25.519c3.827,0,6.94-3.114,6.94-6.941s-3.113-6.94-6.94-6.94       h-12.453c-10.581,0-19.19-8.608-19.19-19.189c0-10.582,8.609-19.19,19.19-19.19h25.519v12.249h-25.519       c-3.828,0-6.941,3.114-6.941,6.941c0,3.826,3.113,6.94,6.941,6.94h12.453c10.581,0,19.188,8.607,19.188,19.189       S272.809,332.351,262.228,332.351z" style="fill:#475059;"/></g><g><rect height="78.393" style="fill:#475059;" width="4.083" x="253.959" y="260.899"/></g><g style="opacity:0.3;"><path d="M242.824,112.28c-6.331,0-11.62,4.445-12.926,10.386c-1.304-5.94-6.592-10.386-12.924-10.386       c-7.31,0-13.235,5.927-13.235,13.237v13.065h0.008c0.078,1.171,1.067,8.452,13.228,19.347       c13.304,11.921,12.895,19.016,12.895,19.016h0.001c-18.416,9.72-41.618,24.184-52.262,39.858       c-20.947,30.851-25.552,140.566-26.076,155.17c-0.033,0.534-0.055,1.072-0.055,1.615c0,14.432,11.699,26.131,26.131,26.131H256       V124.275C255.373,117.548,249.716,112.28,242.824,112.28z" style="fill:#FFEED2;"/></g></g></g><path d="M369.883,181.313l-65.155-65.155c2.395,2.395,3.876,5.704,3.876,9.359    c0,1.025-0.121,2.022-0.341,2.98v9.914h0.029c0,0,0.066,7.598-13.236,19.518c-6.881,6.166-10.089,11.037-11.587,14.306    c2.054,0.584,3.561,2.47,3.561,4.71c0,0.84-0.213,1.63-0.585,2.321c17.588,9.627,38.12,23.063,47.948,37.537    c20.947,30.851,25.552,140.566,26.076,155.17c0.032,0.534,0.055,1.072,0.055,1.615c0,14.432-11.699,26.131-26.131,26.131H256    h-78.392c-7.216,0-13.749-2.925-18.477-7.653l118.987,118.987c110.712-9.475,201.305-89.41,226.738-194.766L369.883,181.313z" style="fill:#3C9987;"/></g></g><g id="Layer_1"/></svg>